<svg width="199" height="408" viewBox="0 0 199 408" fill="none" xmlns="http://www.w3.org/2000/svg">
<path fill-rule="evenodd" clip-rule="evenodd" d="M376.911 353.174C359.269 322.171 335.606 293.464 312.84 266.119C319.567 267.96 328.443 266.525 334.575 263.474C341.465 260.047 344.953 254.085 347.74 247.196C348.136 246.219 350.725 236.146 352.616 236.688C356.097 237.69 357.101 259.899 357.476 262.613C358.815 272.302 360.885 281.795 363.055 291.33C367.736 311.882 372.825 332.492 376.911 353.174ZM301.567 247.931C296.648 248.276 292.929 241.318 289.757 237.724C295.069 237.519 317.738 231.249 320.448 236.661C324.849 245.465 306.051 247.604 301.567 247.931ZM190.95 80.1113C190.929 83.0479 190.928 94.3801 186.347 90.8661C183.247 88.4858 181.557 77.8271 180.596 74.5576C178.635 67.8958 175.622 59.6892 175.966 52.6587C176.619 39.3529 185.348 48.431 187.338 55.5287C189.535 63.3544 190.987 71.9538 190.95 80.1113ZM225.956 138.401C231.745 134.773 229.422 141.544 227.245 144.773C221.125 153.859 219.771 143.333 225.956 138.401ZM212.917 107.283C211.691 100.682 212.299 91.7241 214.184 85.4131C215.664 80.4559 220.399 75.839 223.304 82.1727C225.716 87.431 221.153 101.253 218.721 106.426C216.745 110.633 214.028 114.208 212.917 107.283ZM187.767 109.305C188.85 121.973 177.823 126.61 178.184 112.147C178.407 103.298 185.832 96.7624 187.767 109.305ZM211.085 185.649C211.425 190.906 200.378 209.297 199.582 199.149C199.355 196.255 210.499 180.912 211.085 185.649ZM178.69 167.92C174.91 170.371 164.528 178.558 160.599 176.902C154.32 174.253 161.49 166.83 164.28 164.921C167.327 162.834 175.68 157.724 179.881 158.365C187.586 159.545 182.586 165.15 178.69 167.92ZM121.937 92.1727C112.564 96.1679 109.269 85.0077 107.245 78.3436C105.922 73.9843 101.247 64.8684 106.158 61.7565C114.984 56.1566 124.835 84.9476 121.937 92.1727ZM153.003 93.4863C151.572 89.0143 150.456 84.4459 149.055 79.9661C148.22 77.302 143.854 67.9198 144.38 65.6898C146.044 58.6146 151.759 62.1482 155.082 67.3347C158.492 72.6598 162.057 83.7685 161.698 89.8784C161.365 95.5454 156.074 102.131 153.003 93.4863ZM135.714 46.4569C133.254 38.6775 138.573 32.1368 144.671 40.8046C151.571 50.6071 141.087 60.9695 135.714 46.4569ZM149.205 183.969C149.563 191.084 125.442 201.809 119.99 198.531C112.812 194.217 127.553 188.849 131.651 186.719C135.112 184.923 148.195 175.813 149.205 183.969ZM106.453 173.362C100.332 175.085 94.0573 177.479 87.7611 178.343C79.1135 179.527 79.1868 174.674 85.6573 169.575C91.312 165.119 101.887 164.042 108.635 161.344C114.026 159.188 129.664 146.839 133.565 150.663C142.357 159.279 112.232 171.678 106.453 173.362ZM108.086 201.091C108.33 210.763 82.7178 214.003 76.9906 214.568C80.8336 211.834 106.335 187.754 108.086 201.091ZM59.6163 152.323C42.258 151.745 59.6973 139.108 65.5479 136.774C69.7942 135.077 79.7869 131.308 84.1069 134.861C95.4427 144.185 64.0813 152.493 59.6163 152.323ZM61.5872 116.975C61.9848 110.979 90.8745 101.944 92.5068 107.431C93.7922 111.752 62.973 129.557 61.5872 116.975ZM103.147 124.209C114.607 116.357 130.123 123.735 112.94 132.84C109.568 134.624 100.742 139.443 97.0019 136.696C91.7191 132.817 100.111 126.167 103.147 124.209ZM419.311 150.607C416.47 145.577 412.379 138.55 407.673 143.294C405.844 145.134 403.961 152.82 402.723 155.706C398.387 165.807 393.78 177.085 384.641 183.851C379.171 187.899 360.109 194.436 364.892 182.08C368.97 171.538 382.479 162.204 390.626 154.557C394.402 151.011 403.366 143.733 405.332 138.589C406.83 134.667 403.226 125.438 396.755 127.522C393.818 128.469 393.438 137.053 392.364 139.498C390.665 143.357 387.667 146.382 385.015 149.59C380.813 154.678 376.37 162.136 369.778 164.532C361.852 167.418 359.404 162.777 363.479 155.659C367.464 148.703 376.47 144.225 381.979 138.515C384.72 135.673 393.353 127.361 391.257 123.112C386.692 113.86 380.317 127.394 378.048 130.145C376.27 132.297 365.481 146.187 362.114 143.533C358.067 140.346 367.13 127.505 368.799 124.762C372.32 118.973 373.858 119.298 369.401 116.206C366.856 114.436 361.549 112.919 358.735 113.319C351.828 114.299 344.762 120.674 337.641 122.364C334.694 123.065 324.654 122.907 323.438 127.42C321.565 134.365 351.767 151.01 335.854 154.799C323.555 157.722 311.992 138.675 301.881 146.511C285.903 158.898 311.275 166.435 321.022 169.003C325.392 170.156 339.783 170.656 337.681 178.384C335.97 184.667 324.038 183.281 319.438 182.509C310.723 181.051 302.834 176.831 294.686 173.696C292.487 172.853 283.649 168.058 280.998 169.09C277.202 170.575 272.602 185.399 274.813 188.894C277.539 193.197 292.518 191.696 297.582 191.806C306.14 191.988 316.634 191.679 323.927 197.009C331.978 202.893 322.025 203.811 316.525 203.573C304.657 203.057 292.544 198.86 280.914 196.585C276.858 195.789 270.819 193.628 266.789 194.182C260.686 195.025 261.971 195.448 264.48 200.432C270.076 211.555 275.758 212.807 288.138 213.67C293.785 214.061 318.492 210.811 320.435 218.346C314.365 223.125 299.64 220.511 292.476 220.41C287.234 220.334 278.738 221.542 274.18 219.008C267.975 215.55 260.128 202.657 255.579 197.482C247.509 188.303 239.566 179.17 230.734 170.688C240.371 172.055 249.397 175.109 259.159 172.697C269.831 170.058 280.06 162.928 281.636 151.457C282.212 147.259 281.513 142.951 281.213 138.765C281.115 137.428 281.18 136.054 281.02 134.72C280.321 128.922 280.804 127.033 276.82 131.23C272.288 136.005 269.14 146.876 261.347 148.897C252.717 151.137 257.345 144.671 260.853 140.895C269.516 131.57 278.992 123.457 280.426 109.65C281.208 102.12 280.77 93.8565 279.409 86.3468C278.1 79.1293 276.797 79.3487 274.357 85.2616C269.062 98.0868 260.807 108.653 249.833 117.229C247.73 118.874 243.013 122.899 239.838 120.621C236.964 118.561 239.052 114.664 239.834 111.718C241.557 105.211 244.038 99.1787 246.483 92.9238C249.703 84.6842 255.306 73.5682 255.535 64.6935C255.684 58.9309 251.015 56.4563 246.891 52.8451C242.069 48.6202 237.743 44.1194 234.003 38.8993C231.397 35.2629 228.587 29.8075 224.662 27.4182C218.569 23.7074 219.935 28.3369 220.394 32.9673C220.763 36.6661 226.112 73.1968 217.444 71.3195C208.843 69.4595 212.464 35.0784 211.271 27.5315C209.688 17.5336 195.804 18.8914 187.403 17.0656C182.973 16.1003 178.914 15.5955 174.711 13.9614C173.121 13.3428 171.316 10.6451 169.529 11.4581C165.469 13.3014 181.84 28.3374 177.586 33.6661C170.404 42.6627 163.158 18.9034 161.102 14.5697C159.374 10.9246 157.311 6.6556 154.888 3.48727C151.144 -1.40546 150.638 -0.2243 145.128 1.41573C139.617 3.05576 126.457 2.91488 122.296 6.55813C118.272 10.0822 123.407 12.6669 126.195 15.8711C128.835 18.9034 137.393 29.1925 130.18 31.3248C127.575 32.0951 118.122 24.4026 115.674 22.821C110.476 19.4606 111.597 20.2262 107.233 21.3279C102.162 22.6052 96.454 24.2453 91.5757 25.9727C85.4577 28.1404 84.0008 29.1692 88.5859 33.5524C93.9633 38.6873 102.014 41.78 104.662 49.1268C105.95 52.2999 105.102 55.8486 101.095 55.912C96.8197 55.9812 94.8746 50.1456 93.2294 47.0181C91.1449 43.0598 87.2329 33.7498 82.1595 32.9186C78.9885 32.3989 75.0766 36.2281 72.394 37.6182C70.8058 38.4401 63.6549 40.5746 63.0788 42.7807C62.4475 45.2034 70.6955 50.455 72.9319 53.0382C78.6381 59.6282 84.7018 67.7699 86.8602 75.7012C88.5264 88.6489 73.5347 72.9161 71.1715 68.9893C68.5494 64.6351 60.1351 42.1235 52.6026 44.4035C50.5515 45.0248 49.2845 50.0229 47.6061 51.6587C45.5498 53.6624 42.9099 54.4684 40.4416 55.7123C36.7823 57.5579 33.1202 59.4022 29.6133 61.4884C28.5296 62.1324 25.5832 64.0056 24.996 64.4303C24.554 64.7519 23.5758 64.5402 23.0387 64.944C19.3701 67.7065 17.6578 73.2941 14.3118 76.6532C12.8104 78.1607 6.13542 82.2764 6.62641 84.4117C7.07351 86.3577 38.8503 87.884 43.6109 88.4118C47.2309 88.8122 62.4322 88.178 64.2887 91.715C66.1036 95.175 63.0313 96.3929 60.0417 97.5386C52.6227 100.382 43.2739 101.055 35.4661 102.452C29.9505 103.438 7.36185 104.843 4.43557 110.325C1.41464 115.985 5.08806 119.86 9.30334 120.636C13.9177 121.49 20.5819 119.542 25.0917 118.891C28.7648 118.361 52.2121 112.551 53.4175 117.957C54.7277 123.839 26.6968 128.774 23.9216 129.52C18.6183 130.947 9.66922 131.202 4.98941 133.927C0.795511 136.374 2.36186 136.658 3.52721 140.675C7.55199 154.557 8.98169 151.843 21.2556 148.724C25.9545 147.529 31.9895 145.394 36.4727 147.97C41.8295 151.042 41.5386 154.891 36.7478 157.542C33.4561 159.366 26.5851 159.796 22.8988 160.334C18.5899 160.965 14.2238 161.183 9.87378 161.231C8.59521 161.246 3.00055 160.317 1.78223 161.14C-3.00416 164.37 8.57307 181.194 13.5706 181.85C15.9963 182.169 19.938 180.514 22.3459 180.048C30.7608 178.409 39.3193 177.541 47.7658 175.983C52.5224 175.107 74.7913 168.595 70.8015 180.13C68.596 186.501 52.4872 189.714 47.144 191.534C42.003 193.286 36.8484 194.848 31.599 196.24C26.6945 197.54 23.838 197.007 27.1044 202.434C30.4297 207.957 50.2333 224.807 56.4511 224.273C61.5526 223.832 59.6568 221.473 65.381 224.877C67.4818 226.13 69.6127 228.191 71.4349 229.812C78.4338 236.027 85.6287 244.994 95.4004 246.732C116.287 250.451 144.81 222.505 158.295 209.525C160.975 206.947 171.215 194.298 176.199 197.125C181.437 200.093 172.35 211.904 170.545 214.17C160.487 226.811 147.953 238.943 133.061 245.519C129.093 247.269 117.979 248.949 114.22 252.041C110.492 255.105 114.306 256.092 118.263 258.699C126.703 264.253 137.985 272.446 148.358 269.042C162.015 264.559 169.344 250.234 176.981 238.99C181.218 232.756 201.069 203.3 201.332 226.397C201.459 237.895 194.173 251.057 186.336 258.964C184.871 260.44 175.397 265.161 175.596 266.284C175.899 267.988 181.578 268.719 182.615 268.942C192.667 271.104 222.859 274.05 227.093 261.107C229.997 252.227 226.458 238.038 225.21 229.108C224.821 226.334 222.878 221.877 226.865 220.994C231.971 219.863 236.349 237.703 236.731 240.53C237.518 246.342 236.642 252.399 234.44 258.395C233.471 261.029 230.817 263.382 234.279 263.794C235.534 263.942 242.556 257.258 243.657 256.142C249.257 250.442 249.637 244.022 249.179 236.465C247.935 216.072 238.449 196.19 227.415 179.23C240.608 192.914 253.196 207.082 265.378 221.678C268.422 225.325 270.561 229.786 273.564 233.306C277.897 238.38 283.231 242.507 287.739 247.925C286.412 247.791 274.919 244.695 274.586 247.826C274.284 250.675 284.031 255.088 286.028 256.143C295.017 260.903 298.554 261.319 305.62 269.939C323.204 291.395 339.27 313.639 355.007 336.461C362.698 347.615 370.798 358.605 377.57 370.353C380.968 376.245 383.694 382.535 386.278 388.818C388.055 393.139 390.287 406.183 395.825 407.568C402.263 409.18 400.686 402.094 399.379 398.754C396.429 391.227 394.285 383.898 392.186 376.041C388.773 363.262 386.203 350.275 382.473 337.569C377.818 321.713 373.984 305.727 370.145 289.662C367.653 279.235 365.512 268.633 363.908 258.028C362.807 250.745 363.083 242.945 361.13 235.808C368.738 242.665 367.257 255.054 379.962 255.94C389.781 256.626 396.876 248.701 402.493 241.708C407.073 236.005 413.657 227.386 414.546 219.893C415.606 210.952 408.113 217.347 402.529 219.284C398.925 220.536 388.99 226.252 386.025 222.839C381.877 218.063 396.677 211.856 399.538 210.037C405.832 206.041 412.811 201.185 417.605 195.328C419.498 193.013 427.341 167.876 418.639 171.291C417.535 171.724 415.998 175.238 415.107 176.474C410.977 182.204 406.284 187.374 401.22 192.286C395.7 197.637 383.65 210.23 374.447 207.503C378.177 196.209 393.795 190.321 402.238 182.916C407.663 178.16 412.36 172.905 415.586 166.385C417.189 163.141 421.267 154.055 419.311 150.607Z" fill="#02362C"/>
</svg>
