<svg width="231" height="370" viewBox="0 0 231 370" fill="none" xmlns="http://www.w3.org/2000/svg">
<path fill-rule="evenodd" clip-rule="evenodd" d="M147.611 128.497C135.132 124.523 122.122 123.589 109.19 122.194C113.311 121.285 117.772 120.07 121.969 119.604C125.831 119.18 128.129 120.771 131.764 122.037C138.252 124.302 145.499 127.054 151.139 129.685C149.97 129.27 148.793 128.874 147.611 128.497ZM129.839 133.462C116.148 130.904 102.131 130.349 88.4596 127.674C91.8495 126.637 93.7698 125.733 97.3726 126.076C102.727 126.584 108.146 127.681 113.379 128.846C120.972 130.537 128.634 132.361 136.032 134.76C133.977 134.283 131.912 133.85 129.839 133.462ZM130.497 136.134C129.56 136.513 126.276 135.229 125.215 135C126.237 135.195 129.898 136.376 130.497 136.134ZM103.238 135.853C92.5245 135.182 81.6821 134.846 70.9503 134.902C72.8767 134.182 74.7168 133.28 76.594 132.438C81.727 130.137 82.6191 130.503 87.7432 132.015C94.3521 133.967 101.123 135.078 107.9 136.208C106.348 136.064 104.793 135.946 103.237 135.854L103.238 135.853ZM90.7355 142.031C75.9456 143.153 61.3564 144.945 46.5923 146.598C49.7437 145.325 52.7746 143.705 55.786 142.14C60.4343 139.728 64.0026 140.068 69.1837 140.066C74.6873 140.063 80.0926 140.709 85.5636 141.331C86.9136 141.486 92.1992 141.919 90.7355 142.031ZM67.9469 130.793C75.8436 123.125 84.9023 115.98 94.1828 110.007C100.073 106.216 106.479 101.935 113.401 105.222C101.953 105.698 86.9967 116.081 80.2211 124.98C79.8962 125.401 79.3991 125.693 79.0598 126.107C77.7884 127.651 79.1736 127.819 78.3078 128.769C78.2071 128.881 73.582 130.769 74.1957 130.517C71.0583 131.811 67.8475 132.898 64.7048 134.174C65.768 133.029 66.847 131.901 67.9477 130.792L67.9469 130.793ZM111.996 112.421C104.223 118.921 95.7907 122.381 86.4296 125.642C94.9789 120.144 103.551 115.647 112.948 111.709C112.63 111.946 112.312 112.183 111.996 112.422L111.996 112.421ZM121.667 114.651C123.287 114.132 124.01 114.266 124.371 116.19C120.184 116.031 118.196 116.605 114.24 117.565C116.646 116.423 119.127 115.449 121.667 114.651ZM126.804 115.7C126.513 115.172 126.388 114.164 126.185 113.649C129.293 113.598 131.933 114.255 134.573 115.885C133.699 115.893 127.02 116.664 126.804 115.7L126.804 115.7ZM0.772848 187.851C23.4939 185.045 45.2855 184.312 68.1044 186.536C50.9127 188.043 33.6489 191.498 16.7324 194.852C3.14993 197.545 -10.6225 198.999 -24.244 201.433C-21.7198 198.806 -19.36 196.023 -16.7888 193.434C-12.3231 188.939 -5.63215 188.652 0.772848 187.851ZM78.8878 194.542C82.9898 194.122 87.0823 193.613 91.1625 193.015C95.5972 192.36 102.671 189.436 107.134 190.317C82.7696 197.55 56.4409 200.884 31.3945 204.96C20.9835 206.655 10.3846 209.132 0.299352 212.275C-14.262 216.81 -30.6862 216.788 -44.5832 223.159C-40.3332 218.705 -35.6781 212.334 -30.8361 208.712C-27.3172 206.077 -21.4795 205.858 -17.2925 205.305C-10.3993 204.396 -3.47215 203.689 3.43951 202.945C28.599 200.234 53.7186 197.174 78.8878 194.542ZM-48.5225 218.667C-50.5667 220.917 -52.5563 223.216 -54.4896 225.561C-50.9803 209.101 -51.1379 191.743 -49.1612 175.034C-48.0432 165.586 -46.9942 156.032 -45.4909 146.646C-44.1617 138.358 -43.8076 127.066 -39.3643 119.906C-36.0483 122.986 -33.5969 126.255 -34.2556 130.732C-35.1029 136.49 -37.5828 142.023 -38.7364 147.735C-40.0323 154.154 -40.9098 160.687 -41.711 167.185C-42.9434 177.179 -43.2311 187.345 -42.703 197.393C-42.5603 200.218 -42.3788 203.04 -42.1586 205.86C-42.062 207.09 -41.4248 209.187 -41.6964 210.337C-42.3596 213.165 -46.3842 216.299 -48.5225 218.667ZM-24.0197 150.136C-22.0723 140.887 -20.8846 130.141 -16.8335 121.471C-14.5847 116.653 -12.4221 114.938 -9.06258 120.142C-6.66468 123.856 -10.4317 132.008 -11.6192 136.676C-14.986 149.921 -16.7638 163.511 -18.9917 176.979C-19.5734 180.508 -19.7462 183.998 -20.1217 187.531C-20.4348 190.46 -20.3538 190.286 -22.041 192.491C-23.1256 193.916 -24.8368 195.126 -26.145 196.376C-29.5742 199.653 -33.0507 202.887 -36.4442 206.202C-31.281 187.73 -27.9598 168.882 -24.0197 150.136ZM230.001 192.144C226.872 187.983 222.904 184.231 218.845 181.015C213.221 176.556 206.335 173.948 200.719 169.66C195.996 166.05 192.095 161.246 187.268 157.59C179.601 151.788 171.709 146.962 162.73 143.476C174.166 147.378 185.133 152.075 194.293 160.172C195.067 160.858 201.777 169.449 203.165 168.628C204.115 168.074 200.089 161.856 199.25 160.407C193.06 149.76 180.357 142.947 170.319 136.108C158.982 128.386 146.603 124.053 133.686 119.782C145.421 120.43 155.308 123.444 165.138 130.047C169.974 133.292 174.447 137.084 179.431 140.098C183.849 142.77 188.093 145.234 191.906 148.82C196.177 152.839 199.608 157.219 202.442 162.353C203.507 164.285 208.709 175.978 208.849 168.55C208.919 164.89 204.296 159.675 202.425 157.03C199.27 152.575 195.611 148.562 191.781 144.682C185.266 138.088 179.048 131.244 171.315 126.041C166.917 123.08 162.311 120.735 157.279 119.044C153.393 117.736 149.404 116.798 145.326 116.336C141.454 115.898 141.081 115.944 138 113.944C135.352 112.223 133.092 110.382 130.129 109.155C127.11 107.903 124.54 107.724 122.294 106.016C119.644 103.997 118.617 101.629 115.197 100.365C112.053 99.2015 108.837 99.4577 105.557 99.7196C94.7092 100.584 83.6959 103.334 74.7217 109.75C66.7906 115.422 61.3981 124.473 57.5643 133.298C55.4473 138.167 56.8841 137.984 51.1991 140.783C45.2224 143.727 39.2798 146.619 33.465 149.903C43.0524 137.986 51.3876 124.792 61.8987 113.624C67.5189 107.659 73.0313 101.596 78.6501 95.634C80.3089 93.8772 93.4109 81.2225 86.0518 81.6715C84.3504 81.7743 81.7907 84.0486 80.2271 84.7953C77.1061 86.2933 74.0073 87.6208 71.1224 89.5784C66.1215 92.972 62.0396 97.194 57.9504 101.585C47.3568 112.96 37.8088 125.126 32.921 140.061C31.7635 143.595 31.3403 147.579 29.5266 150.822C28.249 153.11 26.7488 153.9 24.1547 155.59C19.706 158.483 15.382 161.458 11.1688 164.693C21.9417 148.738 28.8907 130.883 37.3794 113.704C48.2967 91.6156 53.292 66.8262 62.4752 44.0043C64.2563 39.5777 66.4259 34.7067 69.4147 30.9389C70.3238 29.793 73.1974 28.0752 73.4482 26.6304C74.1112 22.819 71.5295 23.8423 69.6344 24.9384C64.9892 27.6234 60.4789 33.6799 57.3048 37.7623C52.6855 43.7003 48.0067 50.1418 44.0053 56.5395C30.2198 78.5744 21.0805 103.58 13.4888 128.329C9.91675 139.963 6.23335 151.789 4.47563 163.854C3.62807 169.679 4.59132 169.835 -0.276022 173.822C-5.35921 177.988 -10.2166 182.408 -15.2597 186.615C-10.6641 177.178 -7.92494 165.475 -4.60836 155.463C-1.13608 144.975 2.8134 134.645 6.34245 124.173C12.0817 107.132 16.3775 89.6845 20.5101 72.2007C22.705 62.9048 24.762 53.6018 26.6433 44.2405C29.0615 32.2107 31.52 18.32 36.9124 7.22306C37.7166 5.57266 40.9842 -2.09561 36.2563 0.545551C34.0902 1.75298 31.5229 9.65472 30.4174 11.7851C24.1535 23.8843 18.8765 36.1694 14.1618 48.9457C5.80476 71.6 -0.0597144 94.8151 -6.68125 117.981C-9.99095 113.462 -16.8641 108.487 -22.8028 110.41C-28.1371 112.139 -30.7607 119.732 -32.4389 124.489C-32.6254 121.198 -36.6626 115.06 -39.8101 114.85C-41.5987 114.73 -44.6808 116.425 -46.1765 117.132C-49.8743 118.88 -54.0744 121.092 -56.3807 124.533C-61.1071 131.591 -60.2104 142.67 -61.0502 150.839C-63.551 175.203 -63.1029 198.727 -60.3488 222.991C-59.7196 228.543 -58.9591 231.119 -62.1181 235.495C-65.7262 240.495 -69.2046 245.411 -72.7573 250.105C-71.6157 247.931 -72.6473 241.286 -72.6605 238.968C-72.6971 232.758 -72.6335 226.601 -72.3112 220.396C-71.6497 207.616 -72.3356 194.408 -72.9794 181.62C-74.3051 155.272 -74.1845 129.26 -73.2963 102.919C-73.1102 97.3682 -73.2351 91.8518 -73.2691 86.3041C-73.2834 84.0136 -72.5255 78.4028 -76.1635 79.7442C-77.2198 80.1333 -77.9972 84.2298 -78.3039 85.2688C-81.1377 94.8462 -82.0273 105.207 -83.3252 115.043C-84.5045 123.989 -85.5818 132.95 -86.3292 141.94C-87.7652 159.211 -87.291 175.982 -87.2036 193.282C-87.1301 207.533 -85.585 223.026 -82.9507 236.173C-81.7154 242.339 -79.5682 249.001 -78.9428 255.215C-78.5633 258.957 -80.7533 260.344 -83.2679 263.742C-85.8126 267.178 -88.3261 270.641 -90.7547 274.16C-90.5206 268.768 -92.0575 263.193 -92.4182 257.797C-92.7205 253.289 -93.0069 248.804 -93.4128 244.301C-93.7355 240.755 -94.0396 237.205 -94.3538 233.656C-95.9733 215.387 -97.5548 197.159 -100.544 179.058C-105.139 151.262 -110.152 122.696 -109.966 94.4189C-109.929 89.0222 -109.755 83.6292 -109.693 78.2311C-109.647 74.1624 -110.021 70.1261 -110.044 66.0632C-110.057 63.9911 -109.113 59.9843 -109.804 57.9197C-111.803 51.9457 -113.536 58.621 -113.591 61.3645C-113.619 62.81 -113.706 64.2513 -113.728 65.6961C-113.862 74.7752 -114.643 83.73 -115.092 92.7988C-115.735 105.875 -115.16 118.886 -114.726 131.956C-114.252 146.193 -114.608 160.528 -113.078 174.713C-111.104 192.996 -107.151 211.174 -104.67 229.409C-103.591 237.35 -102.085 245.204 -101.268 253.182C-100.506 260.639 -97.8593 267.969 -96.2474 274.857L-96.2563 274.329C-95.6317 277.257 -94.6514 278.72 -95.5412 281.407C-96.1685 283.294 -97.8894 285.278 -98.9201 287.012C-101.118 290.7 -103.228 294.431 -105.339 298.169C-103.468 288.681 -106.004 276.71 -108.011 267.39C-110.229 257.078 -112.933 246.516 -116.098 236.459C-118.559 228.638 -120.596 220.95 -121.339 212.809C-122.329 201.967 -125.278 191.54 -126.863 180.799C-128.359 170.657 -130.877 160.615 -133.024 150.576C-133.508 148.316 -135.666 137.506 -139.178 142.382C-140.043 143.585 -138.982 146.78 -138.846 148.024C-138.512 151.104 -138.304 154.135 -138.166 157.227C-137.269 176.858 -133.158 196.786 -129.936 216.128C-127.877 228.486 -125.696 240.889 -122.687 253.052C-120.344 262.522 -119.078 272.361 -116.479 281.698C-115.232 286.177 -113.965 290.755 -111.973 294.96C-110.24 298.62 -108.492 299.642 -109.104 303.586C-109.979 309.224 -114.78 315.077 -116.946 320.536C-118.717 324.999 -120.524 329.47 -122.212 333.964C-124.57 340.26 -126.78 346.666 -128.849 353.061C-130.05 356.765 -132.379 361.546 -132.597 365.313C-132.929 371.035 -129.691 369.398 -127.99 365.571C-126.846 362.995 -125.932 360.224 -124.856 357.605C-116.96 338.414 -109.731 317.838 -97.9411 300.619C-93.0233 293.428 -79.429 291.695 -71.4528 289.188C-52.2649 283.149 -31.508 282.353 -11.5992 280.146C4.45467 278.37 20.248 276.736 35.9645 272.788C38.2603 272.213 80.1532 259.879 79.1023 257.728C79.689 258.935 33.2701 269.265 29.5528 269.57C17.8956 270.52 6.2755 270.775 -5.40736 271.269C-34.6296 272.506 -63.3728 273.208 -89.9254 287.015C-86.5748 281.745 -82.5667 271.797 -76.685 269.756C-65.3493 265.818 -53.4023 263.275 -41.982 259.435C-30.1101 255.449 -17.9185 252.779 -5.97703 249.085C5.95114 245.395 17.8529 241.572 29.9624 238.469C42.1344 235.35 54.7082 232.1 67.356 232.501C72.2242 232.656 77.106 233.087 81.9535 233.545C83.7842 233.718 98.3547 236.412 90.4759 233.066C85.3737 230.897 78.694 230.73 73.2284 229.934C66.9606 229.024 60.9526 228.216 54.6177 228.266C40.8239 228.372 26.9675 231.606 13.634 234.807C-2.32349 238.634 -18.9353 242.432 -34.1676 248.591C-48.1281 254.236 -62.1601 259.656 -76.1212 265.231C-73.5825 261.345 -70.8824 257.576 -68.2411 253.759C-66.9583 251.902 -65.6048 248.889 -63.7834 247.621C-61.0036 245.684 -55.1546 245.181 -51.9259 244.106C-38.9355 239.787 -25.8861 234.714 -12.5748 231.501C8.82777 226.333 30.7395 223.128 52.2755 218.529C64.8437 215.848 78.1531 213.482 91.0038 213.71C95.8378 213.798 100.679 213.622 105.425 214.643C107.104 215.003 109.218 215.933 110.948 216.129C116.122 216.709 112.283 214.22 109.144 213.132C84.2654 204.519 56.8421 211.405 31.7637 214.91C15.1786 217.225 -1.19464 219.587 -17.0304 225.292C-31.6215 230.547 -45.5713 237.556 -60.4048 242.171C-56.517 236.646 -53.0508 230.925 -46.8392 227.885C-39.9652 224.524 -32.7199 223.062 -25.218 221.788C-9.6208 219.13 5.87191 215.728 21.5193 213.413C35.8938 211.29 50.2423 209.406 64.4909 206.508C78.3645 203.682 92.1566 202.031 105.398 196.691C109.59 195 114.673 192.069 119.149 191.813C124.951 191.482 131.976 193.22 137.665 194.082C151.521 196.177 165.904 198.337 178.713 204.202C191.281 209.958 199.815 219.004 209.436 228.461C212.467 231.445 215.45 234.479 218.472 237.471C219.145 238.138 223.162 243.146 223.99 243.21C229.114 243.594 219.448 233.438 217.78 231.357C206.253 216.976 193.779 204.982 176.821 197.147C162.369 190.469 147.26 186.126 131.5 183.902C131.54 181.053 143.151 180.911 143.47 177.96C143.891 174.025 135.766 177.963 134.156 178.447C131.098 179.365 128.124 180.513 125.051 181.382C117.996 183.376 110.189 180.92 103.022 180C94.3803 178.896 85.6246 178.172 76.9337 177.649C48.1636 175.914 20.5595 176.868 -7.38469 184.577C-2.37043 180.185 2.86055 176.011 8.16053 171.969C10.2241 170.396 11.797 168.955 14.1348 168.217C18.0834 166.97 22.7712 167.527 26.8873 167.124C43.1593 165.537 59.357 163.753 75.7188 163.251C102.645 162.425 130.72 167.258 156.256 175.818C168.713 179.996 180.935 184.059 191.753 191.749C194.257 193.527 196.484 195.568 198.76 197.623C199.701 198.472 205.446 204.649 205.738 204.616C208.229 204.35 196.676 191.565 194.997 189.932C172.435 168.003 143.16 163.018 113.267 158.615C82.0074 154.009 50.6306 156.455 19.8341 163.404C25.9837 159.567 32.028 152.991 38.9316 150.76C44.1756 149.064 50.8315 149.386 56.1377 148.842C71.5256 147.26 87.6546 149.947 103.076 151.039C120.497 152.271 137.42 154.506 154.263 159.147C162.881 161.522 171.274 164.035 179.682 167.119C186.346 169.563 191.783 171.068 197.175 175.534C199.35 177.352 205.82 182.18 209.321 185.462C210.749 186.803 212.228 189.635 213.842 190.309C219.854 192.817 211.875 183.021 210.565 181.321C215.344 184.176 219.805 187.482 224.048 191.002C224.887 191.7 225.69 192.233 226.54 192.87C227.538 193.621 228.06 195.812 229.768 195.082C231.159 194.484 230.665 193.051 230.001 192.144Z" fill="#012A32"/>
</svg>
